<?xml version="1.0" encoding="utf-8"?>
<!-- Generator: Adobe Illustrator 26.0.0, SVG Export Plug-In . SVG Version: 6.00 Build 0)  -->
<svg version="1.1" id="Layer_1" xmlns="http://www.w3.org/2000/svg" xmlns:xlink="http://www.w3.org/1999/xlink" x="0px" y="0px"
	 viewBox="0 0 1000 1000" style="enable-background:new 0 0 1000 1000;" xml:space="preserve">
<style type="text/css">
	.st0{enable-background:new    ;}
	.st1{fill:#FFC107;}
</style>
<g class="st0">
	<path class="st1" d="M268.1,151.7l149.6,163.4c20.3,22.2,18.8,56.7-3.3,77c-22.1,20.4-56.5,18.7-76.9-3.4l-55.1-60.2v513.7
		c0,30.1-24.3,54.5-54.4,54.5s-54.4-24.3-54.4-54.6V328.5l-55.1,60.2c-10.7,11.7-25.4,17.7-40.1,17.7c-13.1,0-26.3-4.7-36.7-14.3
		c-22.2-20.2-23.6-54.8-1.8-77L188,151.7C208.4,129.2,247.4,129.2,268.1,151.7L268.1,151.7z M500,189.2c0-30,24.4-54.4,54.4-54.4
		h54.4c28.5,0,52.9,24.4,52.9,54.4s-22.8,54.4-52.9,54.4h-54.4C524.3,243.7,500,219.3,500,189.2z M501.5,406.9
		c0-30,24.4-54.4,54.4-54.4h161.7c30,0,54.4,24.4,54.4,54.4s-24.4,54.4-54.4,54.4H554.4C524.3,461.3,501.5,436.9,501.5,406.9z
		 M501.5,624.6c0-30,24.4-54.4,54.4-54.4h270.5c30,0,54.4,24.4,54.4,54.4S856.5,679,826.5,679H554.4
		C524.3,679,501.5,654.6,501.5,624.6z M989.7,842.2c0,30-24.4,54.4-54.4,54.4H555.9c-30,0-54.4-24.4-54.4-54.4s24.4-54.4,54.4-54.4
		h379.4C965.4,787.8,989.7,812.2,989.7,842.2z"/>
</g>
</svg>
