<?xml version="1.0" encoding="utf-8"?>
<!-- Generator: Adobe Illustrator 26.0.0, SVG Export Plug-In . SVG Version: 6.00 Build 0)  -->
<svg version="1.1" id="Layer_1" xmlns="http://www.w3.org/2000/svg" xmlns:xlink="http://www.w3.org/1999/xlink" x="0px" y="0px"
	 viewBox="0 0 1000 1000" style="enable-background:new 0 0 1000 1000;" xml:space="preserve">
<style type="text/css">
	.st0{enable-background:new    ;}
	.st1{fill:#FFC107;}
</style>
<g class="st0">
	<path class="st1" d="M271.2,379.1L137.8,512.5l133.3,133.3c9.3,9.3,14,21.5,14,33.8c0,27.3-22.3,47.7-47.7,47.7
		c-12.2,0-24.5-3.3-33.8-12.7L36.5,547.5c-9.3-9.3-14-24.2-14-35.1s4.7-23.1,14-33.8l167.1-167.1c9.3-9.3,21.5-14,33.7-14
		c25.4,0,47.7,20.5,47.7,47.7C285.2,358.9,280.5,371,271.2,379.1z M641.4,192.7l-191,668.4c-6,21-25.1,34.6-45.9,34.6
		c-35.8,0-49.1-32.4-47.8-47.8c0-4.3,0.6-8.8,1.9-13.1l191-668.4c6-21,25.2-34.6,46.1-34.6c35.8,0,47.6,32.5,47.6,47.7
		C643.2,183.8,642.6,188.3,641.4,192.7z M963.4,546.2L796.3,713.3c-9.3,9.3-21.5,14-33.7,14c-25.4,0-47.7-20.5-47.7-47.7
		c0-10.9,4.6-23.1,14-33.7l133.4-133.4L728.8,379.1c-9.3-9.3-14-21.5-14-33.8c0-27.3,22.3-47.7,47.7-47.7c12.2,0,24.5,6,33.8,14
		l167.1,167.1c9.3,9.3,14,21.5,14,33.8C977.4,526,972.8,538.3,963.4,546.2z"/>
</g>
</svg>
