<?xml version="1.0" encoding="utf-8"?>
<!-- Generator: Adobe Illustrator 26.0.0, SVG Export Plug-In . SVG Version: 6.00 Build 0)  -->
<svg version="1.1" id="Layer_1" xmlns="http://www.w3.org/2000/svg" xmlns:xlink="http://www.w3.org/1999/xlink" x="0px" y="0px"
	 viewBox="0 0 1000 1000" style="enable-background:new 0 0 1000 1000;" xml:space="preserve">
<style type="text/css">
	.st0{enable-background:new    ;}
	.st1{fill:#FFC107;}
</style>
<g class="st0">
	<path class="st1" d="M610.4,352.5h216.1v516.9c0,45.1-36.5,81.6-81.6,81.6H255.1c-45.1,0-81.6-36.6-81.6-81.6V162
		c0-45.1,36.5-81.6,81.6-81.6h299.3v217.7C554.4,328.2,578.7,352.5,610.4,352.5z M498.2,660.1l-52.6-198.8H336.8l-52,196.7
		c-13.5,66.3,37.9,128.3,106.8,128.3C460,786.3,511.4,726.1,498.2,660.1z M336.8,189.2h108.8v-54.4H336.8V189.2z M336.8,298.1h108.8
		v-54.4H336.8V298.1z M336.8,406.9h108.8v-54.4H336.8V406.9z M445.6,679c0,15-12.2,27.2-27.2,27.2H364c-15,0-27.2-12.2-27.2-27.2
		s12.2-27.2,27.2-27.2h54.4C433.3,651.8,445.6,664,445.6,679z M826.5,298.1H608.8V80.4L826.5,298.1z"/>
</g>
</svg>
