<?xml version="1.0" encoding="utf-8"?>
<!-- Generator: Adobe Illustrator 26.0.0, SVG Export Plug-In . SVG Version: 6.00 Build 0)  -->
<svg version="1.1" id="Layer_1" xmlns="http://www.w3.org/2000/svg" xmlns:xlink="http://www.w3.org/1999/xlink" x="0px" y="0px"
	 viewBox="0 0 1000 1000" style="enable-background:new 0 0 1000 1000;" xml:space="preserve">
<style type="text/css">
	.st0{enable-background:new    ;}
	.st1{fill:#FFC107;}
</style>
<g class="st0">
	<path class="st1" d="M270.8,475.6L38.2,243C1,205.8,1,145.5,38.2,108.3s97.5-37.2,134.7,0l232.6,232.6L270.8,475.6z M794.8,413.5
		L302,906.3c-7.9,7.9-18.1,13.2-29.1,15.1L107,950.5c-24.6,4.3-46.1-17.1-41.8-41.8l29-165.7c1.9-11,7.2-21.2,15.1-29.1l492.8-492.8
		L794.8,413.5z M988.3,895.1c0,30-24.4,54.4-54.4,54.4h-91.3c-92.7,0-226.2-12.9-292.7-79.8c-25.6-25.8-40.1-57.8-46.3-91.1
		L710,572.1c33.9,6.8,65.1,23.4,90,48.5c38,38.3,54.9,90,50.5,140.1c-3.8,43.9,28.9,79.9,83.3,79.9
		C965.4,840.7,989.7,866.5,988.3,895.1z M833.1,375L640.6,182.5l78.2-78.2c31.9-31.9,83.6-31.9,115.6,0l76.9,76.9
		c31.9,31.9,31.9,83.6,0,115.5L833.1,375z"/>
</g>
</svg>
