<?xml version="1.0" encoding="utf-8"?>
<!-- Generator: Adobe Illustrator 26.0.0, SVG Export Plug-In . SVG Version: 6.00 Build 0)  -->
<svg version="1.1" id="Layer_1" xmlns="http://www.w3.org/2000/svg" xmlns:xlink="http://www.w3.org/1999/xlink" x="0px" y="0px"
	 viewBox="0 0 1000 1000" style="enable-background:new 0 0 1000 1000;" xml:space="preserve">
<style type="text/css">
	.st0{enable-background:new    ;}
	.st1{fill:#FFC107;}
</style>
<g class="st0">
	<path class="st1" d="M227.9,892H119.1c-30,0-54.4-22.8-54.4-52.9V459.8c0-28.5,24.4-52.9,54.4-52.9h108.8c30,0,54.4,22.8,54.4,52.9
		v380.9C282.3,872.1,258,895.1,227.9,892z M859.3,542.6c13.3,14.5,21.6,33.7,21.6,55c0,39.8-28.7,73-66.6,80
		c7.6,12.4,12.1,26.8,12.1,42.3c0,36.4-23.8,66.7-56.5,77.3c1.3,5.8,2.1,11.8,2.1,17.9c0,45.1-36.5,81.6-81.6,81.6h-99.8
		c-58.8,0-116.1-19-163.2-54.4l-58.1-43.5c-20.6-15.4-32.6-39.6-32.6-65.3l0.2-272.1l0,0c0.2-23.8,10.4-47.4,30.4-63.6l27.7-22.1
		c139.2-111.3,76.6-240.8,184-240.8c52.7,0,84.2,41.7,84.2,81.8c0,25.7-20,98.8-58.7,163.3h249.1c45.1,0,81.6,36.5,81.6,81.6
		C935.3,504.7,901.7,539.7,859.3,542.6z"/>
</g>
</svg>
