<?xml version="1.0" encoding="utf-8"?>
<!-- Generator: Adobe Illustrator 26.0.0, SVG Export Plug-In . SVG Version: 6.00 Build 0)  -->
<svg version="1.1" id="Layer_1" xmlns="http://www.w3.org/2000/svg" xmlns:xlink="http://www.w3.org/1999/xlink" x="0px" y="0px"
	 viewBox="0 0 1000 1000" style="enable-background:new 0 0 1000 1000;" xml:space="preserve">
<style type="text/css">
	.st0{enable-background:new    ;}
	.st1{fill:#FFFFFF;}
</style>
<g class="st0">
	<path class="st1" d="M919.9,511c0,229.4-190.8,416.1-420.1,416.1h-0.2c-69.7,0-138.1-17.4-198.9-50.6L80.1,934.4l59-215.6
		C102.7,655.6,83.6,584,83.6,510.7c0-229.4,186.7-416.1,416.1-416.1c111.2,0,215.7,43.3,294.3,122
		C872.6,295.4,919.9,399.8,919.9,511z M849.6,511c0.2-92.4-39.9-179.2-105.2-244.6C679.2,200.9,592.4,165,500,165
		c-190.8,0-346,155.2-346,345.8c0,65.4,18.2,129,52.9,184.1l8.2,13.1l-34.9,127.6L311,801.3l12.6,7.5c53,31.5,114,48.2,176.2,48.2
		C690.4,857,849.6,701.8,849.6,511z M709.2,610.3c2.6,4.3,2.6,25.1-6,49.5s-50,46.5-70.1,49.5c-33,4.9-58.9,2.4-124.8-26.1
		C403.9,638,335.9,533.1,330.6,526.1c-5.1-6.9-42.4-56.4-42.4-107.6s26.8-76.3,36.4-86.8c9.6-10.3,20.8-12.9,27.7-12.9
		s13.9,0,19.9,0.4c6.4,0.4,15-2.4,23.4,17.8c8.6,20.8,29.4,72,32.1,77.2c2.6,5.2,4.3,11.2,0.9,18.2c-19.9,39.7-41.2,38.4-30.6,56.8
		c40.3,69.2,80.4,93.2,141.5,123.7c10.3,5.2,16.5,4.3,22.5-2.6c6.2-7.1,26.1-30.4,33-40.9s13.9-8.8,23.4-5.2
		c9.6,3.4,60.7,28.5,71,33.7C699.8,603,706.7,605.6,709.2,610.3z"/>
</g>
</svg>
